<mxfile host="app.diagrams.net" modified="2021-12-26T00:20:05.767Z" agent="5.0 (Windows NT 10.0; Win64; x64) AppleWebKit/537.36 (KHTML, like Gecko) Chrome/94.0.4606.85 YaBrowser/21.11.4.727 Yowser/2.5 Safari/537.36" etag="m4-oNP1G4iDoEHIA_3WM" version="16.1.0" type="github">
  <diagram id="7hAk2F3jeESIdfcBZHj0" name="Page-1">
    <mxGraphModel dx="2100" dy="567" grid="1" gridSize="10" guides="1" tooltips="1" connect="1" arrows="1" fold="1" page="1" pageScale="1" pageWidth="827" pageHeight="1169" math="0" shadow="0">
      <root>
        <mxCell id="0" />
        <mxCell id="1" parent="0" />
        <mxCell id="OAtUZvXxgG-5UGhybnFJ-1" style="edgeStyle=orthogonalEdgeStyle;rounded=0;orthogonalLoop=1;jettySize=auto;html=1;exitX=0.25;exitY=0.1;exitDx=0;exitDy=0;exitPerimeter=0;entryX=1;entryY=1;entryDx=0;entryDy=0;endArrow=none;endFill=0;" edge="1" parent="1" source="OAtUZvXxgG-5UGhybnFJ-3" target="OAtUZvXxgG-5UGhybnFJ-4">
          <mxGeometry relative="1" as="geometry" />
        </mxCell>
        <mxCell id="OAtUZvXxgG-5UGhybnFJ-2" style="edgeStyle=orthogonalEdgeStyle;rounded=0;orthogonalLoop=1;jettySize=auto;html=1;exitX=0.75;exitY=0.1;exitDx=0;exitDy=0;exitPerimeter=0;entryX=0;entryY=1;entryDx=0;entryDy=0;fontSize=8;endArrow=none;endFill=0;" edge="1" parent="1" source="OAtUZvXxgG-5UGhybnFJ-3" target="OAtUZvXxgG-5UGhybnFJ-21">
          <mxGeometry relative="1" as="geometry" />
        </mxCell>
        <mxCell id="OAtUZvXxgG-5UGhybnFJ-3" value="User" style="shape=umlActor;verticalLabelPosition=bottom;verticalAlign=top;html=1;outlineConnect=0;" vertex="1" parent="1">
          <mxGeometry x="360" y="130" width="30" height="60" as="geometry" />
        </mxCell>
        <mxCell id="OAtUZvXxgG-5UGhybnFJ-4" value="&lt;span style=&quot;font-size: 8px&quot;&gt;Войти&lt;/span&gt;" style="ellipse;whiteSpace=wrap;html=1;" vertex="1" parent="1">
          <mxGeometry x="294" y="90" width="60" height="30" as="geometry" />
        </mxCell>
        <mxCell id="OAtUZvXxgG-5UGhybnFJ-5" style="edgeStyle=orthogonalEdgeStyle;rounded=0;orthogonalLoop=1;jettySize=auto;html=1;exitX=0.5;exitY=0;exitDx=0;exitDy=0;exitPerimeter=0;entryX=0;entryY=1;entryDx=0;entryDy=0;entryPerimeter=0;fontSize=8;startArrow=none;startFill=0;endArrow=classic;endFill=0;" edge="1" parent="1" source="OAtUZvXxgG-5UGhybnFJ-8" target="OAtUZvXxgG-5UGhybnFJ-3">
          <mxGeometry relative="1" as="geometry">
            <Array as="points">
              <mxPoint x="265" y="190" />
            </Array>
          </mxGeometry>
        </mxCell>
        <mxCell id="OAtUZvXxgG-5UGhybnFJ-6" style="edgeStyle=orthogonalEdgeStyle;rounded=0;orthogonalLoop=1;jettySize=auto;html=1;exitX=0.25;exitY=0.1;exitDx=0;exitDy=0;exitPerimeter=0;entryX=0.5;entryY=1;entryDx=0;entryDy=0;fontSize=8;startArrow=none;startFill=0;endArrow=none;endFill=0;" edge="1" parent="1" source="OAtUZvXxgG-5UGhybnFJ-8" target="OAtUZvXxgG-5UGhybnFJ-22">
          <mxGeometry relative="1" as="geometry">
            <Array as="points">
              <mxPoint x="220" y="246" />
            </Array>
          </mxGeometry>
        </mxCell>
        <mxCell id="OAtUZvXxgG-5UGhybnFJ-8" value="Worker" style="shape=umlActor;verticalLabelPosition=bottom;verticalAlign=top;html=1;outlineConnect=0;" vertex="1" parent="1">
          <mxGeometry x="250" y="240" width="30" height="60" as="geometry" />
        </mxCell>
        <mxCell id="OAtUZvXxgG-5UGhybnFJ-9" style="edgeStyle=orthogonalEdgeStyle;rounded=0;orthogonalLoop=1;jettySize=auto;html=1;exitX=0.75;exitY=0.1;exitDx=0;exitDy=0;exitPerimeter=0;entryX=0.5;entryY=1;entryDx=0;entryDy=0;endArrow=none;endFill=0;" edge="1" parent="1" source="OAtUZvXxgG-5UGhybnFJ-13" target="OAtUZvXxgG-5UGhybnFJ-17">
          <mxGeometry relative="1" as="geometry">
            <Array as="points">
              <mxPoint x="515" y="246" />
            </Array>
          </mxGeometry>
        </mxCell>
        <mxCell id="OAtUZvXxgG-5UGhybnFJ-10" style="rounded=0;orthogonalLoop=1;jettySize=auto;html=1;exitX=0.5;exitY=0.5;exitDx=0;exitDy=0;exitPerimeter=0;entryX=1;entryY=0.5;entryDx=0;entryDy=0;endArrow=none;endFill=0;" edge="1" parent="1" source="OAtUZvXxgG-5UGhybnFJ-65" target="OAtUZvXxgG-5UGhybnFJ-18">
          <mxGeometry relative="1" as="geometry" />
        </mxCell>
        <mxCell id="OAtUZvXxgG-5UGhybnFJ-11" style="edgeStyle=orthogonalEdgeStyle;rounded=0;orthogonalLoop=1;jettySize=auto;html=1;exitX=0;exitY=0.3333333333333333;exitDx=0;exitDy=0;exitPerimeter=0;entryX=1;entryY=0.3333333333333333;entryDx=0;entryDy=0;entryPerimeter=0;fontSize=8;startArrow=none;startFill=0;endArrow=classic;endFill=0;" edge="1" parent="1" source="OAtUZvXxgG-5UGhybnFJ-13" target="OAtUZvXxgG-5UGhybnFJ-8">
          <mxGeometry relative="1" as="geometry" />
        </mxCell>
        <mxCell id="OAtUZvXxgG-5UGhybnFJ-13" value="Chief" style="shape=umlActor;verticalLabelPosition=bottom;verticalAlign=top;html=1;outlineConnect=0;" vertex="1" parent="1">
          <mxGeometry x="460" y="240" width="30" height="60" as="geometry" />
        </mxCell>
        <mxCell id="OAtUZvXxgG-5UGhybnFJ-14" style="edgeStyle=none;rounded=0;orthogonalLoop=1;jettySize=auto;html=1;exitX=1;exitY=0.5;exitDx=0;exitDy=0;entryX=0;entryY=0.5;entryDx=0;entryDy=0;dashed=1;fontSize=8;startArrow=classic;startFill=1;endArrow=none;endFill=0;" edge="1" parent="1" source="OAtUZvXxgG-5UGhybnFJ-17" target="OAtUZvXxgG-5UGhybnFJ-43">
          <mxGeometry relative="1" as="geometry" />
        </mxCell>
        <mxCell id="OAtUZvXxgG-5UGhybnFJ-15" style="edgeStyle=none;rounded=0;orthogonalLoop=1;jettySize=auto;html=1;exitX=1;exitY=0;exitDx=0;exitDy=0;entryX=0;entryY=0.75;entryDx=0;entryDy=0;entryPerimeter=0;dashed=1;fontSize=8;startArrow=classic;startFill=1;endArrow=none;endFill=0;" edge="1" parent="1" source="OAtUZvXxgG-5UGhybnFJ-17" target="OAtUZvXxgG-5UGhybnFJ-42">
          <mxGeometry relative="1" as="geometry" />
        </mxCell>
        <mxCell id="OAtUZvXxgG-5UGhybnFJ-16" style="edgeStyle=none;rounded=0;orthogonalLoop=1;jettySize=auto;html=1;exitX=0.5;exitY=0;exitDx=0;exitDy=0;entryX=0.5;entryY=1;entryDx=0;entryDy=0;dashed=1;fontSize=8;startArrow=classic;startFill=1;endArrow=none;endFill=0;" edge="1" parent="1" source="OAtUZvXxgG-5UGhybnFJ-17" target="OAtUZvXxgG-5UGhybnFJ-41">
          <mxGeometry relative="1" as="geometry" />
        </mxCell>
        <mxCell id="OAtUZvXxgG-5UGhybnFJ-17" value="&lt;font style=&quot;font-size: 8px&quot;&gt;Заполнение табеля&lt;br&gt;&lt;/font&gt;" style="ellipse;whiteSpace=wrap;html=1;" vertex="1" parent="1">
          <mxGeometry x="480" y="192.5" width="70" height="40" as="geometry" />
        </mxCell>
        <mxCell id="OAtUZvXxgG-5UGhybnFJ-18" value="&lt;font style=&quot;font-size: 9px&quot;&gt;Просмотр аккаунтов&lt;/font&gt;" style="ellipse;whiteSpace=wrap;html=1;" vertex="1" parent="1">
          <mxGeometry x="250" y="330" width="70" height="30" as="geometry" />
        </mxCell>
        <mxCell id="OAtUZvXxgG-5UGhybnFJ-21" value="&lt;span style=&quot;font-size: 6px&quot;&gt;Просмотр организации&amp;nbsp;и область работы&lt;br&gt;&lt;br&gt;&lt;/span&gt;" style="ellipse;whiteSpace=wrap;html=1;align=center;" vertex="1" parent="1">
          <mxGeometry x="400" y="60" width="60" height="60" as="geometry" />
        </mxCell>
        <mxCell id="OAtUZvXxgG-5UGhybnFJ-22" value="&lt;span style=&quot;font-size: 8px&quot;&gt;Выход&lt;/span&gt;" style="ellipse;whiteSpace=wrap;html=1;" vertex="1" parent="1">
          <mxGeometry x="190" y="180" width="60" height="30" as="geometry" />
        </mxCell>
        <mxCell id="OAtUZvXxgG-5UGhybnFJ-36" style="edgeStyle=none;rounded=0;orthogonalLoop=1;jettySize=auto;html=1;exitX=1;exitY=0.5;exitDx=0;exitDy=0;fontSize=5;startArrow=none;startFill=0;endArrow=none;endFill=0;entryX=0.5;entryY=0.5;entryDx=0;entryDy=0;entryPerimeter=0;" edge="1" parent="1" source="OAtUZvXxgG-5UGhybnFJ-37" target="OAtUZvXxgG-5UGhybnFJ-8">
          <mxGeometry relative="1" as="geometry">
            <Array as="points">
              <mxPoint x="210" y="280" />
            </Array>
          </mxGeometry>
        </mxCell>
        <mxCell id="OAtUZvXxgG-5UGhybnFJ-37" value="&lt;font size=&quot;1&quot;&gt;Просмотр табеля&lt;/font&gt;" style="ellipse;whiteSpace=wrap;html=1;" vertex="1" parent="1">
          <mxGeometry x="100" y="267.5" width="70" height="40" as="geometry" />
        </mxCell>
        <mxCell id="OAtUZvXxgG-5UGhybnFJ-41" value="&lt;font style=&quot;font-size: 8px&quot;&gt;Заполнение часов работы&lt;br&gt;&lt;/font&gt;" style="ellipse;whiteSpace=wrap;html=1;" vertex="1" parent="1">
          <mxGeometry x="480" y="92.5" width="70" height="50" as="geometry" />
        </mxCell>
        <mxCell id="OAtUZvXxgG-5UGhybnFJ-42" value="&lt;font style=&quot;font-size: 8px&quot;&gt;Заполнение причины неявки&lt;br&gt;&lt;/font&gt;" style="ellipse;whiteSpace=wrap;html=1;" vertex="1" parent="1">
          <mxGeometry x="610" y="137.5" width="70" height="50" as="geometry" />
        </mxCell>
        <mxCell id="OAtUZvXxgG-5UGhybnFJ-43" value="&lt;font style=&quot;font-size: 8px&quot;&gt;Загрузка тестирования&lt;br&gt;&lt;/font&gt;" style="ellipse;whiteSpace=wrap;html=1;" vertex="1" parent="1">
          <mxGeometry x="610" y="192.5" width="70" height="40" as="geometry" />
        </mxCell>
        <mxCell id="OAtUZvXxgG-5UGhybnFJ-44" value="&lt;span style=&quot;color: rgb(0, 0, 0); font-family: helvetica; font-size: x-small; font-style: normal; font-weight: 400; letter-spacing: normal; text-align: center; text-indent: 0px; text-transform: none; word-spacing: 0px; background-color: rgb(255, 255, 255); display: inline; float: none;&quot;&gt;extend&lt;/span&gt;" style="text;whiteSpace=wrap;html=1;fontSize=5;" vertex="1" parent="1">
          <mxGeometry x="520" y="140" width="60" height="20" as="geometry" />
        </mxCell>
        <mxCell id="OAtUZvXxgG-5UGhybnFJ-45" value="&lt;span style=&quot;color: rgb(0, 0, 0); font-family: helvetica; font-size: x-small; font-style: normal; font-weight: 400; letter-spacing: normal; text-align: center; text-indent: 0px; text-transform: none; word-spacing: 0px; background-color: rgb(255, 255, 255); display: inline; float: none;&quot;&gt;extend&lt;/span&gt;" style="text;whiteSpace=wrap;html=1;fontSize=5;" vertex="1" parent="1">
          <mxGeometry x="570" y="182.5" width="60" height="20" as="geometry" />
        </mxCell>
        <mxCell id="OAtUZvXxgG-5UGhybnFJ-46" value="&lt;span style=&quot;color: rgb(0, 0, 0); font-family: helvetica; font-size: x-small; font-style: normal; font-weight: 400; letter-spacing: normal; text-align: center; text-indent: 0px; text-transform: none; word-spacing: 0px; background-color: rgb(255, 255, 255); display: inline; float: none;&quot;&gt;extend&lt;/span&gt;" style="text;whiteSpace=wrap;html=1;fontSize=5;" vertex="1" parent="1">
          <mxGeometry x="565" y="212.5" width="60" height="20" as="geometry" />
        </mxCell>
        <mxCell id="OAtUZvXxgG-5UGhybnFJ-47" style="edgeStyle=none;rounded=0;orthogonalLoop=1;jettySize=auto;html=1;exitX=0.5;exitY=1;exitDx=0;exitDy=0;entryX=0.5;entryY=0;entryDx=0;entryDy=0;dashed=1;fontSize=9;startArrow=none;startFill=0;endArrow=classic;endFill=1;" edge="1" parent="1" source="OAtUZvXxgG-5UGhybnFJ-48" target="OAtUZvXxgG-5UGhybnFJ-37">
          <mxGeometry relative="1" as="geometry" />
        </mxCell>
        <mxCell id="OAtUZvXxgG-5UGhybnFJ-48" value="&lt;font size=&quot;1&quot;&gt;Просмотр области работы&lt;br&gt;&lt;/font&gt;" style="ellipse;whiteSpace=wrap;html=1;" vertex="1" parent="1">
          <mxGeometry x="105" y="160" width="70" height="60" as="geometry" />
        </mxCell>
        <mxCell id="OAtUZvXxgG-5UGhybnFJ-49" style="edgeStyle=none;rounded=0;orthogonalLoop=1;jettySize=auto;html=1;exitX=1;exitY=0.5;exitDx=0;exitDy=0;dashed=1;fontSize=9;startArrow=none;startFill=0;endArrow=classic;endFill=1;" edge="1" parent="1" source="OAtUZvXxgG-5UGhybnFJ-50">
          <mxGeometry relative="1" as="geometry">
            <mxPoint x="100" y="288" as="targetPoint" />
          </mxGeometry>
        </mxCell>
        <mxCell id="OAtUZvXxgG-5UGhybnFJ-50" value="&lt;font size=&quot;1&quot;&gt;Просмотр учащихся бригады&lt;br&gt;&lt;/font&gt;" style="ellipse;whiteSpace=wrap;html=1;" vertex="1" parent="1">
          <mxGeometry x="-10" y="240" width="80" height="50" as="geometry" />
        </mxCell>
        <mxCell id="OAtUZvXxgG-5UGhybnFJ-58" value="&lt;span style=&quot;color: rgb(0, 0, 0); font-family: helvetica; font-size: x-small; font-style: normal; font-weight: 400; letter-spacing: normal; text-align: center; text-indent: 0px; text-transform: none; word-spacing: 0px; background-color: rgb(255, 255, 255); display: inline; float: none;&quot;&gt;extend&lt;/span&gt;" style="text;whiteSpace=wrap;html=1;fontSize=5;" vertex="1" parent="1">
          <mxGeometry x="70" y="250" width="60" height="20" as="geometry" />
        </mxCell>
        <mxCell id="OAtUZvXxgG-5UGhybnFJ-59" style="edgeStyle=none;rounded=0;orthogonalLoop=1;jettySize=auto;html=1;exitX=0.916;exitY=0.859;exitDx=0;exitDy=0;entryX=0;entryY=0;entryDx=0;entryDy=0;dashed=1;fontSize=9;startArrow=none;startFill=0;endArrow=classic;endFill=1;exitPerimeter=0;" edge="1" parent="1" source="OAtUZvXxgG-5UGhybnFJ-60" target="OAtUZvXxgG-5UGhybnFJ-37">
          <mxGeometry relative="1" as="geometry" />
        </mxCell>
        <mxCell id="OAtUZvXxgG-5UGhybnFJ-60" value="&lt;font size=&quot;1&quot;&gt;Просмотр часов работы&lt;/font&gt;" style="ellipse;whiteSpace=wrap;html=1;" vertex="1" parent="1">
          <mxGeometry y="170" width="80" height="50" as="geometry" />
        </mxCell>
        <mxCell id="OAtUZvXxgG-5UGhybnFJ-61" value="&lt;span style=&quot;color: rgb(0, 0, 0); font-family: helvetica; font-size: x-small; font-style: normal; font-weight: 400; letter-spacing: normal; text-align: center; text-indent: 0px; text-transform: none; word-spacing: 0px; background-color: rgb(255, 255, 255); display: inline; float: none;&quot;&gt;extend&lt;/span&gt;" style="text;whiteSpace=wrap;html=1;fontSize=5;" vertex="1" parent="1">
          <mxGeometry x="100" y="220" width="60" height="20" as="geometry" />
        </mxCell>
        <mxCell id="OAtUZvXxgG-5UGhybnFJ-62" value="&lt;span style=&quot;color: rgb(0, 0, 0); font-family: helvetica; font-size: x-small; font-style: normal; font-weight: 400; letter-spacing: normal; text-align: center; text-indent: 0px; text-transform: none; word-spacing: 0px; background-color: rgb(255, 255, 255); display: inline; float: none;&quot;&gt;extend&lt;/span&gt;" style="text;whiteSpace=wrap;html=1;fontSize=5;" vertex="1" parent="1">
          <mxGeometry x="140" y="230" width="60" height="20" as="geometry" />
        </mxCell>
        <mxCell id="OAtUZvXxgG-5UGhybnFJ-65" value="Administrator" style="shape=umlActor;verticalLabelPosition=bottom;verticalAlign=top;html=1;outlineConnect=0;" vertex="1" parent="1">
          <mxGeometry x="354" y="315" width="30" height="60" as="geometry" />
        </mxCell>
        <mxCell id="OAtUZvXxgG-5UGhybnFJ-74" value="&lt;font size=&quot;1&quot;&gt;Просмотр явки и неявки&lt;/font&gt;" style="ellipse;whiteSpace=wrap;html=1;" vertex="1" parent="1">
          <mxGeometry x="-10" y="295" width="80" height="50" as="geometry" />
        </mxCell>
        <mxCell id="OAtUZvXxgG-5UGhybnFJ-76" style="edgeStyle=none;rounded=0;orthogonalLoop=1;jettySize=auto;html=1;exitX=1;exitY=0.5;exitDx=0;exitDy=0;dashed=1;fontSize=9;startArrow=none;startFill=0;endArrow=classic;endFill=1;entryX=0;entryY=1;entryDx=0;entryDy=0;" edge="1" parent="1" source="OAtUZvXxgG-5UGhybnFJ-74" target="OAtUZvXxgG-5UGhybnFJ-37">
          <mxGeometry relative="1" as="geometry">
            <mxPoint x="80" y="275" as="sourcePoint" />
            <mxPoint x="110" y="320" as="targetPoint" />
          </mxGeometry>
        </mxCell>
        <mxCell id="OAtUZvXxgG-5UGhybnFJ-78" style="edgeStyle=orthogonalEdgeStyle;rounded=0;orthogonalLoop=1;jettySize=auto;html=1;exitX=1;exitY=0.3333333333333333;exitDx=0;exitDy=0;exitPerimeter=0;entryX=0;entryY=0.5;entryDx=0;entryDy=0;endArrow=none;endFill=0;" edge="1" parent="1" target="OAtUZvXxgG-5UGhybnFJ-79" source="OAtUZvXxgG-5UGhybnFJ-13">
          <mxGeometry relative="1" as="geometry">
            <mxPoint x="522.5" y="307.5" as="sourcePoint" />
            <Array as="points">
              <mxPoint x="510" y="260" />
              <mxPoint x="510" y="288" />
              <mxPoint x="560" y="288" />
            </Array>
          </mxGeometry>
        </mxCell>
        <mxCell id="OAtUZvXxgG-5UGhybnFJ-79" value="&lt;font style=&quot;font-size: 8px&quot;&gt;Выбор области работы&lt;br&gt;&lt;/font&gt;" style="ellipse;whiteSpace=wrap;html=1;" vertex="1" parent="1">
          <mxGeometry x="530" y="265" width="70" height="40" as="geometry" />
        </mxCell>
        <mxCell id="OAtUZvXxgG-5UGhybnFJ-80" style="edgeStyle=none;rounded=0;orthogonalLoop=1;jettySize=auto;html=1;exitX=1;exitY=0.5;exitDx=0;exitDy=0;entryX=0;entryY=0.5;entryDx=0;entryDy=0;dashed=1;fontSize=8;startArrow=classic;startFill=1;endArrow=none;endFill=0;" edge="1" parent="1" target="OAtUZvXxgG-5UGhybnFJ-81">
          <mxGeometry relative="1" as="geometry">
            <mxPoint x="600" y="287.5" as="sourcePoint" />
          </mxGeometry>
        </mxCell>
        <mxCell id="OAtUZvXxgG-5UGhybnFJ-81" value="&lt;font style=&quot;font-size: 8px&quot;&gt;Просмотр срока выполнения&lt;br&gt;&lt;/font&gt;" style="ellipse;whiteSpace=wrap;html=1;" vertex="1" parent="1">
          <mxGeometry x="640" y="267.5" width="70" height="40" as="geometry" />
        </mxCell>
        <mxCell id="OAtUZvXxgG-5UGhybnFJ-82" value="&lt;span style=&quot;color: rgb(0, 0, 0); font-family: helvetica; font-size: x-small; font-style: normal; font-weight: 400; letter-spacing: normal; text-align: center; text-indent: 0px; text-transform: none; word-spacing: 0px; background-color: rgb(255, 255, 255); display: inline; float: none;&quot;&gt;extend&lt;/span&gt;" style="text;whiteSpace=wrap;html=1;fontSize=5;" vertex="1" parent="1">
          <mxGeometry x="610" y="260" width="60" height="20" as="geometry" />
        </mxCell>
        <mxCell id="OAtUZvXxgG-5UGhybnFJ-83" value="&lt;font style=&quot;font-size: 8px&quot;&gt;Заполнение причины неявки&lt;br&gt;&lt;/font&gt;" style="ellipse;whiteSpace=wrap;html=1;" vertex="1" parent="1">
          <mxGeometry x="555" y="92.5" width="70" height="50" as="geometry" />
        </mxCell>
        <mxCell id="OAtUZvXxgG-5UGhybnFJ-84" style="edgeStyle=none;rounded=0;orthogonalLoop=1;jettySize=auto;html=1;entryX=0.831;entryY=0.08;entryDx=0;entryDy=0;dashed=1;fontSize=8;startArrow=classic;startFill=1;endArrow=none;endFill=0;exitX=0.664;exitY=0.053;exitDx=0;exitDy=0;exitPerimeter=0;entryPerimeter=0;" edge="1" parent="1" source="OAtUZvXxgG-5UGhybnFJ-17" target="OAtUZvXxgG-5UGhybnFJ-44">
          <mxGeometry relative="1" as="geometry">
            <mxPoint x="549.6980747833172" y="208.32897348498204" as="sourcePoint" />
            <mxPoint x="620" y="185" as="targetPoint" />
          </mxGeometry>
        </mxCell>
        <mxCell id="OAtUZvXxgG-5UGhybnFJ-85" value="&lt;span style=&quot;color: rgb(0, 0, 0); font-family: helvetica; font-size: x-small; font-style: normal; font-weight: 400; letter-spacing: normal; text-align: center; text-indent: 0px; text-transform: none; word-spacing: 0px; background-color: rgb(255, 255, 255); display: inline; float: none;&quot;&gt;extend&lt;/span&gt;" style="text;whiteSpace=wrap;html=1;fontSize=5;" vertex="1" parent="1">
          <mxGeometry x="560" y="150" width="60" height="20" as="geometry" />
        </mxCell>
        <mxCell id="OAtUZvXxgG-5UGhybnFJ-86" style="edgeStyle=none;rounded=0;orthogonalLoop=1;jettySize=auto;html=1;exitX=1;exitY=1;exitDx=0;exitDy=0;entryX=0;entryY=0.5;entryDx=0;entryDy=0;dashed=1;fontSize=8;startArrow=classic;startFill=1;endArrow=none;endFill=0;" edge="1" parent="1" target="OAtUZvXxgG-5UGhybnFJ-87" source="OAtUZvXxgG-5UGhybnFJ-79">
          <mxGeometry relative="1" as="geometry">
            <mxPoint x="590" y="330" as="sourcePoint" />
          </mxGeometry>
        </mxCell>
        <mxCell id="OAtUZvXxgG-5UGhybnFJ-87" value="&lt;font style=&quot;font-size: 8px&quot;&gt;Просмотр стоимости работы&lt;br&gt;&lt;/font&gt;" style="ellipse;whiteSpace=wrap;html=1;" vertex="1" parent="1">
          <mxGeometry x="630" y="310" width="80" height="40" as="geometry" />
        </mxCell>
        <mxCell id="OAtUZvXxgG-5UGhybnFJ-88" value="&lt;span style=&quot;color: rgb(0, 0, 0); font-family: helvetica; font-size: x-small; font-style: normal; font-weight: 400; letter-spacing: normal; text-align: center; text-indent: 0px; text-transform: none; word-spacing: 0px; background-color: rgb(255, 255, 255); display: inline; float: none;&quot;&gt;extend&lt;/span&gt;" style="text;whiteSpace=wrap;html=1;fontSize=5;" vertex="1" parent="1">
          <mxGeometry x="610" y="295" width="60" height="20" as="geometry" />
        </mxCell>
        <mxCell id="OAtUZvXxgG-5UGhybnFJ-89" style="edgeStyle=none;rounded=0;orthogonalLoop=1;jettySize=auto;html=1;exitX=0.5;exitY=1;exitDx=0;exitDy=0;dashed=1;fontSize=8;startArrow=classic;startFill=1;endArrow=none;endFill=0;entryX=0.5;entryY=0;entryDx=0;entryDy=0;" edge="1" parent="1" target="OAtUZvXxgG-5UGhybnFJ-90" source="OAtUZvXxgG-5UGhybnFJ-79">
          <mxGeometry relative="1" as="geometry">
            <mxPoint x="520" y="360" as="sourcePoint" />
            <mxPoint x="565" y="350" as="targetPoint" />
          </mxGeometry>
        </mxCell>
        <mxCell id="OAtUZvXxgG-5UGhybnFJ-90" value="&lt;font style=&quot;font-size: 8px&quot;&gt;Просмотр срока выполнения&lt;br&gt;&lt;/font&gt;" style="ellipse;whiteSpace=wrap;html=1;" vertex="1" parent="1">
          <mxGeometry x="532.5" y="335" width="70" height="40" as="geometry" />
        </mxCell>
        <mxCell id="OAtUZvXxgG-5UGhybnFJ-91" value="&lt;span style=&quot;color: rgb(0, 0, 0); font-family: helvetica; font-size: x-small; font-style: normal; font-weight: 400; letter-spacing: normal; text-align: center; text-indent: 0px; text-transform: none; word-spacing: 0px; background-color: rgb(255, 255, 255); display: inline; float: none;&quot;&gt;extend&lt;/span&gt;" style="text;whiteSpace=wrap;html=1;fontSize=5;" vertex="1" parent="1">
          <mxGeometry x="570" y="315" width="60" height="20" as="geometry" />
        </mxCell>
        <mxCell id="OAtUZvXxgG-5UGhybnFJ-92" value="&lt;span style=&quot;color: rgb(0, 0, 0); font-family: helvetica; font-size: x-small; font-style: normal; font-weight: 400; letter-spacing: normal; text-align: center; text-indent: 0px; text-transform: none; word-spacing: 0px; background-color: rgb(255, 255, 255); display: inline; float: none;&quot;&gt;extend&lt;/span&gt;" style="text;whiteSpace=wrap;html=1;fontSize=5;" vertex="1" parent="1">
          <mxGeometry x="70" y="287.5" width="60" height="20" as="geometry" />
        </mxCell>
        <mxCell id="OAtUZvXxgG-5UGhybnFJ-93" value="&lt;font size=&quot;1&quot;&gt;Добавление аккаунта&lt;/font&gt;" style="ellipse;whiteSpace=wrap;html=1;" vertex="1" parent="1">
          <mxGeometry x="120" y="325" width="80" height="40" as="geometry" />
        </mxCell>
        <mxCell id="OAtUZvXxgG-5UGhybnFJ-94" style="edgeStyle=none;rounded=0;orthogonalLoop=1;jettySize=auto;html=1;exitX=1;exitY=0.5;exitDx=0;exitDy=0;dashed=1;fontSize=9;startArrow=none;startFill=0;endArrow=classic;endFill=1;entryX=0;entryY=0.5;entryDx=0;entryDy=0;" edge="1" parent="1" source="OAtUZvXxgG-5UGhybnFJ-93" target="OAtUZvXxgG-5UGhybnFJ-18">
          <mxGeometry relative="1" as="geometry">
            <mxPoint x="210" y="315" as="sourcePoint" />
            <mxPoint x="240.30192521668323" y="341.67102651501796" as="targetPoint" />
          </mxGeometry>
        </mxCell>
        <mxCell id="OAtUZvXxgG-5UGhybnFJ-95" value="&lt;span style=&quot;color: rgb(0, 0, 0); font-family: helvetica; font-size: x-small; font-style: normal; font-weight: 400; letter-spacing: normal; text-align: center; text-indent: 0px; text-transform: none; word-spacing: 0px; background-color: rgb(255, 255, 255); display: inline; float: none;&quot;&gt;extend&lt;/span&gt;" style="text;whiteSpace=wrap;html=1;fontSize=5;" vertex="1" parent="1">
          <mxGeometry x="200" y="320" width="60" height="20" as="geometry" />
        </mxCell>
        <mxCell id="OAtUZvXxgG-5UGhybnFJ-96" value="&lt;font size=&quot;1&quot;&gt;Удаление аккаунта&lt;/font&gt;" style="ellipse;whiteSpace=wrap;html=1;" vertex="1" parent="1">
          <mxGeometry x="140" y="375" width="80" height="40" as="geometry" />
        </mxCell>
        <mxCell id="OAtUZvXxgG-5UGhybnFJ-98" style="edgeStyle=none;rounded=0;orthogonalLoop=1;jettySize=auto;html=1;exitX=1;exitY=0;exitDx=0;exitDy=0;dashed=1;fontSize=9;startArrow=none;startFill=0;endArrow=classic;endFill=1;entryX=0.064;entryY=0.73;entryDx=0;entryDy=0;entryPerimeter=0;" edge="1" parent="1" source="OAtUZvXxgG-5UGhybnFJ-96" target="OAtUZvXxgG-5UGhybnFJ-18">
          <mxGeometry relative="1" as="geometry">
            <mxPoint x="210" y="355" as="sourcePoint" />
            <mxPoint x="260.0000000000023" y="355" as="targetPoint" />
          </mxGeometry>
        </mxCell>
        <mxCell id="OAtUZvXxgG-5UGhybnFJ-99" value="&lt;span style=&quot;color: rgb(0, 0, 0); font-family: helvetica; font-size: x-small; font-style: normal; font-weight: 400; letter-spacing: normal; text-align: center; text-indent: 0px; text-transform: none; word-spacing: 0px; background-color: rgb(255, 255, 255); display: inline; float: none;&quot;&gt;extend&lt;/span&gt;" style="text;whiteSpace=wrap;html=1;fontSize=5;" vertex="1" parent="1">
          <mxGeometry x="200" y="350" width="60" height="20" as="geometry" />
        </mxCell>
        <mxCell id="OAtUZvXxgG-5UGhybnFJ-100" value="&lt;font size=&quot;1&quot;&gt;Изменение статуса аккаунта&lt;/font&gt;" style="ellipse;whiteSpace=wrap;html=1;" vertex="1" parent="1">
          <mxGeometry x="225" y="385" width="80" height="45" as="geometry" />
        </mxCell>
        <mxCell id="OAtUZvXxgG-5UGhybnFJ-101" style="edgeStyle=none;rounded=0;orthogonalLoop=1;jettySize=auto;html=1;exitX=0.5;exitY=0;exitDx=0;exitDy=0;dashed=1;fontSize=9;startArrow=none;startFill=0;endArrow=classic;endFill=1;entryX=0.286;entryY=1.019;entryDx=0;entryDy=0;entryPerimeter=0;" edge="1" parent="1" source="OAtUZvXxgG-5UGhybnFJ-100" target="OAtUZvXxgG-5UGhybnFJ-18">
          <mxGeometry relative="1" as="geometry">
            <mxPoint x="218.2842712474619" y="390.85786437626905" as="sourcePoint" />
            <mxPoint x="264.48" y="361.9" as="targetPoint" />
          </mxGeometry>
        </mxCell>
        <mxCell id="OAtUZvXxgG-5UGhybnFJ-102" value="&lt;span style=&quot;color: rgb(0, 0, 0); font-family: helvetica; font-size: x-small; font-style: normal; font-weight: 400; letter-spacing: normal; text-align: center; text-indent: 0px; text-transform: none; word-spacing: 0px; background-color: rgb(255, 255, 255); display: inline; float: none;&quot;&gt;extend&lt;/span&gt;" style="text;whiteSpace=wrap;html=1;fontSize=5;" vertex="1" parent="1">
          <mxGeometry x="234" y="360" width="60" height="20" as="geometry" />
        </mxCell>
        <mxCell id="OAtUZvXxgG-5UGhybnFJ-103" style="edgeStyle=orthogonalEdgeStyle;rounded=0;orthogonalLoop=1;jettySize=auto;html=1;exitX=1;exitY=0.3333333333333333;exitDx=0;exitDy=0;exitPerimeter=0;fontSize=8;startArrow=none;startFill=0;endArrow=classic;endFill=0;" edge="1" parent="1" source="OAtUZvXxgG-5UGhybnFJ-65">
          <mxGeometry relative="1" as="geometry">
            <mxPoint x="470" y="270" as="sourcePoint" />
            <mxPoint x="475" y="280" as="targetPoint" />
            <Array as="points">
              <mxPoint x="384" y="280" />
              <mxPoint x="475" y="280" />
            </Array>
          </mxGeometry>
        </mxCell>
        <mxCell id="OAtUZvXxgG-5UGhybnFJ-104" value="&lt;font size=&quot;1&quot;&gt;Просмотр области работы&lt;/font&gt;" style="ellipse;whiteSpace=wrap;html=1;" vertex="1" parent="1">
          <mxGeometry x="420" y="350" width="100" height="40" as="geometry" />
        </mxCell>
        <mxCell id="OAtUZvXxgG-5UGhybnFJ-105" style="rounded=0;orthogonalLoop=1;jettySize=auto;html=1;exitX=0;exitY=0;exitDx=0;exitDy=0;endArrow=none;endFill=0;entryX=0.5;entryY=0.5;entryDx=0;entryDy=0;entryPerimeter=0;" edge="1" parent="1" source="OAtUZvXxgG-5UGhybnFJ-104" target="OAtUZvXxgG-5UGhybnFJ-65">
          <mxGeometry relative="1" as="geometry">
            <mxPoint x="379" y="355" as="sourcePoint" />
            <mxPoint x="329.9999999999977" y="355" as="targetPoint" />
          </mxGeometry>
        </mxCell>
        <mxCell id="OAtUZvXxgG-5UGhybnFJ-111" value="&lt;font size=&quot;1&quot;&gt;Добавление области работы&lt;br&gt;&lt;/font&gt;" style="ellipse;whiteSpace=wrap;html=1;" vertex="1" parent="1">
          <mxGeometry x="565" y="390" width="95" height="45" as="geometry" />
        </mxCell>
        <mxCell id="OAtUZvXxgG-5UGhybnFJ-112" style="edgeStyle=none;rounded=0;orthogonalLoop=1;jettySize=auto;html=1;exitX=0.047;exitY=0.23;exitDx=0;exitDy=0;dashed=1;fontSize=9;startArrow=none;startFill=0;endArrow=classic;endFill=1;exitPerimeter=0;entryX=1;entryY=0.5;entryDx=0;entryDy=0;" edge="1" parent="1" source="OAtUZvXxgG-5UGhybnFJ-111" target="OAtUZvXxgG-5UGhybnFJ-104">
          <mxGeometry relative="1" as="geometry">
            <mxPoint x="518.2842712474619" y="420.85786437626905" as="sourcePoint" />
            <mxPoint x="516" y="381" as="targetPoint" />
          </mxGeometry>
        </mxCell>
        <mxCell id="OAtUZvXxgG-5UGhybnFJ-113" value="&lt;span style=&quot;color: rgb(0, 0, 0); font-family: helvetica; font-size: x-small; font-style: normal; font-weight: 400; letter-spacing: normal; text-align: center; text-indent: 0px; text-transform: none; word-spacing: 0px; background-color: rgb(255, 255, 255); display: inline; float: none;&quot;&gt;extend&lt;/span&gt;" style="text;whiteSpace=wrap;html=1;fontSize=5;" vertex="1" parent="1">
          <mxGeometry x="560" y="375" width="60" height="20" as="geometry" />
        </mxCell>
        <mxCell id="OAtUZvXxgG-5UGhybnFJ-114" value="&lt;font size=&quot;1&quot;&gt;Удаление области работы&lt;/font&gt;" style="ellipse;whiteSpace=wrap;html=1;" vertex="1" parent="1">
          <mxGeometry x="485" y="415" width="85" height="45" as="geometry" />
        </mxCell>
        <mxCell id="OAtUZvXxgG-5UGhybnFJ-115" style="edgeStyle=none;rounded=0;orthogonalLoop=1;jettySize=auto;html=1;exitX=0.5;exitY=0;exitDx=0;exitDy=0;dashed=1;fontSize=9;startArrow=none;startFill=0;endArrow=classic;endFill=1;entryX=0.5;entryY=1;entryDx=0;entryDy=0;" edge="1" parent="1" source="OAtUZvXxgG-5UGhybnFJ-114" target="OAtUZvXxgG-5UGhybnFJ-104">
          <mxGeometry relative="1" as="geometry">
            <mxPoint x="428.2842712474619" y="420.85786437626905" as="sourcePoint" />
            <mxPoint x="480.02" y="390.56999999999994" as="targetPoint" />
          </mxGeometry>
        </mxCell>
        <mxCell id="OAtUZvXxgG-5UGhybnFJ-116" value="&lt;span style=&quot;color: rgb(0, 0, 0); font-family: helvetica; font-size: x-small; font-style: normal; font-weight: 400; letter-spacing: normal; text-align: center; text-indent: 0px; text-transform: none; word-spacing: 0px; background-color: rgb(255, 255, 255); display: inline; float: none;&quot;&gt;extend&lt;/span&gt;" style="text;whiteSpace=wrap;html=1;fontSize=5;" vertex="1" parent="1">
          <mxGeometry x="510" y="390" width="60" height="20" as="geometry" />
        </mxCell>
        <mxCell id="OAtUZvXxgG-5UGhybnFJ-117" value="&lt;font size=&quot;1&quot;&gt;Просмотр бригад&lt;/font&gt;" style="ellipse;whiteSpace=wrap;html=1;" vertex="1" parent="1">
          <mxGeometry x="270" y="430" width="100" height="30" as="geometry" />
        </mxCell>
        <mxCell id="OAtUZvXxgG-5UGhybnFJ-118" style="rounded=0;orthogonalLoop=1;jettySize=auto;html=1;exitX=0;exitY=1;exitDx=0;exitDy=0;exitPerimeter=0;endArrow=none;endFill=0;entryX=0.5;entryY=0;entryDx=0;entryDy=0;" edge="1" parent="1" source="OAtUZvXxgG-5UGhybnFJ-65" target="OAtUZvXxgG-5UGhybnFJ-117">
          <mxGeometry relative="1" as="geometry">
            <mxPoint x="360" y="365" as="sourcePoint" />
            <mxPoint x="320" y="390" as="targetPoint" />
            <Array as="points">
              <mxPoint x="320" y="375" />
            </Array>
          </mxGeometry>
        </mxCell>
        <mxCell id="OAtUZvXxgG-5UGhybnFJ-120" value="&lt;font size=&quot;1&quot;&gt;Удаление бригады&lt;/font&gt;" style="ellipse;whiteSpace=wrap;html=1;" vertex="1" parent="1">
          <mxGeometry x="375" y="460" width="85" height="45" as="geometry" />
        </mxCell>
        <mxCell id="OAtUZvXxgG-5UGhybnFJ-121" style="edgeStyle=none;rounded=0;orthogonalLoop=1;jettySize=auto;html=1;exitX=0;exitY=0;exitDx=0;exitDy=0;dashed=1;fontSize=9;startArrow=none;startFill=0;endArrow=classic;endFill=1;entryX=1;entryY=0.5;entryDx=0;entryDy=0;" edge="1" parent="1" source="OAtUZvXxgG-5UGhybnFJ-120" target="OAtUZvXxgG-5UGhybnFJ-117">
          <mxGeometry relative="1" as="geometry">
            <mxPoint x="328.2842712474619" y="480.85786437626905" as="sourcePoint" />
            <mxPoint x="370" y="450" as="targetPoint" />
          </mxGeometry>
        </mxCell>
        <mxCell id="OAtUZvXxgG-5UGhybnFJ-122" value="&lt;span style=&quot;color: rgb(0, 0, 0); font-family: helvetica; font-size: x-small; font-style: normal; font-weight: 400; letter-spacing: normal; text-align: center; text-indent: 0px; text-transform: none; word-spacing: 0px; background-color: rgb(255, 255, 255); display: inline; float: none;&quot;&gt;extend&lt;/span&gt;" style="text;whiteSpace=wrap;html=1;fontSize=5;" vertex="1" parent="1">
          <mxGeometry x="384" y="440" width="60" height="20" as="geometry" />
        </mxCell>
        <mxCell id="OAtUZvXxgG-5UGhybnFJ-124" value="&lt;font size=&quot;1&quot;&gt;Создание бригады&lt;/font&gt;" style="ellipse;whiteSpace=wrap;html=1;" vertex="1" parent="1">
          <mxGeometry x="315" y="500" width="85" height="30" as="geometry" />
        </mxCell>
        <mxCell id="OAtUZvXxgG-5UGhybnFJ-125" style="edgeStyle=none;rounded=0;orthogonalLoop=1;jettySize=auto;html=1;exitX=0.5;exitY=0;exitDx=0;exitDy=0;dashed=1;fontSize=9;startArrow=none;startFill=0;endArrow=classic;endFill=1;entryX=0.731;entryY=0.977;entryDx=0;entryDy=0;entryPerimeter=0;" edge="1" parent="1" source="OAtUZvXxgG-5UGhybnFJ-124" target="OAtUZvXxgG-5UGhybnFJ-117">
          <mxGeometry relative="1" as="geometry">
            <mxPoint x="268.2842712474619" y="520.857864376269" as="sourcePoint" />
            <mxPoint x="310" y="485" as="targetPoint" />
          </mxGeometry>
        </mxCell>
        <mxCell id="OAtUZvXxgG-5UGhybnFJ-126" value="&lt;span style=&quot;color: rgb(0, 0, 0); font-family: helvetica; font-size: x-small; font-style: normal; font-weight: 400; letter-spacing: normal; text-align: center; text-indent: 0px; text-transform: none; word-spacing: 0px; background-color: rgb(255, 255, 255); display: inline; float: none;&quot;&gt;extend&lt;/span&gt;" style="text;whiteSpace=wrap;html=1;fontSize=5;" vertex="1" parent="1">
          <mxGeometry x="345" y="460" width="60" height="20" as="geometry" />
        </mxCell>
        <mxCell id="OAtUZvXxgG-5UGhybnFJ-127" value="&lt;font size=&quot;1&quot;&gt;Редактирование бригады (формирование)&lt;/font&gt;" style="ellipse;whiteSpace=wrap;html=1;" vertex="1" parent="1">
          <mxGeometry x="205" y="480" width="95" height="60" as="geometry" />
        </mxCell>
        <mxCell id="OAtUZvXxgG-5UGhybnFJ-128" style="edgeStyle=none;rounded=0;orthogonalLoop=1;jettySize=auto;html=1;exitX=0.743;exitY=0.028;exitDx=0;exitDy=0;dashed=1;fontSize=9;startArrow=none;startFill=0;endArrow=classic;endFill=1;entryX=0;entryY=1;entryDx=0;entryDy=0;exitPerimeter=0;" edge="1" parent="1" source="OAtUZvXxgG-5UGhybnFJ-127" target="OAtUZvXxgG-5UGhybnFJ-117">
          <mxGeometry relative="1" as="geometry">
            <mxPoint x="158.2842712474619" y="500.85786437626905" as="sourcePoint" />
            <mxPoint x="200" y="465" as="targetPoint" />
          </mxGeometry>
        </mxCell>
        <mxCell id="OAtUZvXxgG-5UGhybnFJ-129" value="&lt;span style=&quot;color: rgb(0, 0, 0); font-family: helvetica; font-size: x-small; font-style: normal; font-weight: 400; letter-spacing: normal; text-align: center; text-indent: 0px; text-transform: none; word-spacing: 0px; background-color: rgb(255, 255, 255); display: inline; float: none;&quot;&gt;extend&lt;/span&gt;" style="text;whiteSpace=wrap;html=1;fontSize=5;" vertex="1" parent="1">
          <mxGeometry x="280" y="460" width="60" height="20" as="geometry" />
        </mxCell>
        <mxCell id="OAtUZvXxgG-5UGhybnFJ-130" value="&lt;font size=&quot;1&quot;&gt;Создание табелей&lt;/font&gt;" style="ellipse;whiteSpace=wrap;html=1;" vertex="1" parent="1">
          <mxGeometry x="480" y="470" width="100" height="30" as="geometry" />
        </mxCell>
        <mxCell id="OAtUZvXxgG-5UGhybnFJ-142" style="rounded=0;orthogonalLoop=1;jettySize=auto;html=1;exitX=0;exitY=0;exitDx=0;exitDy=0;endArrow=none;endFill=0;entryX=1;entryY=1;entryDx=0;entryDy=0;entryPerimeter=0;" edge="1" parent="1" source="OAtUZvXxgG-5UGhybnFJ-130" target="OAtUZvXxgG-5UGhybnFJ-65">
          <mxGeometry relative="1" as="geometry">
            <mxPoint x="462.87611035604584" y="420.81740071794945" as="sourcePoint" />
            <mxPoint x="397.13" y="410" as="targetPoint" />
            <Array as="points">
              <mxPoint x="430" y="390" />
            </Array>
          </mxGeometry>
        </mxCell>
      </root>
    </mxGraphModel>
  </diagram>
</mxfile>
